<?xml version="1.0" encoding="iso-8859-1"?>
<!-- Uploaded to: SVG Repo, www.svgrepo.com, Generator: SVG Repo Mixer Tools -->
<!DOCTYPE svg PUBLIC "-//W3C//DTD SVG 1.1//EN" "http://www.w3.org/Graphics/SVG/1.1/DTD/svg11.dtd">
<svg fill="#17a34a" height="800px" width="800px" version="1.1" id="Capa_1" xmlns="http://www.w3.org/2000/svg" xmlns:xlink="http://www.w3.org/1999/xlink" 
	 viewBox="0 0 400.242 400.242" xml:space="preserve">
<g id="XMLID_872_">
	<path id="XMLID_879_" d="M129.441,394.881c-2.163-4.129-1.186-9.205,2.355-12.236c74.574-63.833,102.479-163.364,93.26-207.761
		c-1.537-7.398-4.722-16.409-11.311-20.945c-19.697,15.488-42.388,25.036-64.518,27.049c-25.297,2.301-46.925-5.39-60.934-21.651
		c-20.96-24.33-19.909-62.697,2.658-97.786c17.251-29.167,44.793-49.668,77.585-57.745c33.895-9.163,76.704-2.113,109.476,24.848
		c23.288,19.16,38.854,46.112,43.831,75.891l0,0c11.576,69.283,3.886,120.52-26.545,176.848
		c-25.415,47.046-66.028,76.754-95.623,93.391c-31.927,17.948-57.751,24.847-58.835,25.132
		C136.305,401.102,131.592,398.987,129.441,394.881z M215.186,132.666c10.491,3.227,24.118,12.466,29.452,38.15
		c5.948,28.644-0.287,68.806-17.106,110.188c-12.17,29.942-29.05,58.145-49.102,82.433c3.851-1.938,7.851-4.06,11.947-6.373
		c27.121-15.32,64.287-42.534,87.326-85.18c28.114-52.041,35.188-99.568,24.414-164.045
		c-10.432-62.424-73.785-99.549-128.461-84.701c-0.079,0.021-0.158,0.042-0.237,0.062c-27.63,6.778-50.835,24.066-65.34,48.679
		c-0.068,0.116-0.14,0.231-0.213,0.346c-17.749,27.502-19.483,56.571-4.42,74.059c9.678,11.233,25.299,16.488,43.969,14.786
		c19.922-1.812,40.628-11.195,58.304-26.422C208.345,132.385,211.932,131.662,215.186,132.666z"/>
</g>
</svg>